<?xml version="1.0" standalone="no"?><!DOCTYPE svg PUBLIC "-//W3C//DTD SVG 1.1//EN" "http://www.w3.org/Graphics/SVG/1.1/DTD/svg11.dtd"><svg class="icon" width="200px" height="200.00px" viewBox="0 0 1024 1024" version="1.1" xmlns="http://www.w3.org/2000/svg"><path d="M366.728533 301.433475c-60.848356-18.223184-82.923922-18.215153-101.173877 0.034802-18.266018 18.268695-17.080052 27.317375 5.439917 41.556999 37.782254 23.879948 173.565992 24.088763 173.565992 0.262358 0-10.191812-35.03017-29.022703-77.832032-41.854159zM657.509731 301.430797c-42.807216 12.831456-77.840063 31.662348-77.840063 41.851483 0.002677 23.829082 135.786416 23.622944 173.574024-0.259681 22.511937-14.242301 23.697903-23.288303 5.439916-41.556999-18.260664-18.249956-40.328199-18.257987-101.173877-0.034803zM491.937631 407.72869c-26.463373 10.151655-27.997365 17.786813-8.390107 41.420466 18.656878 22.477135 30.131033 23.904042 51.250866 6.379586 17.687759-14.675995 20.613856-29.183331 8.390107-41.415111-10.357793-10.352439-33.418541-13.224993-51.250866-6.384941z" fill="#2c2c2c" /><path d="M512 35.198829c-265.396706 0-480.543791 215.147085-480.543791 480.543791 0 265.399383 215.147085 480.543791 480.543791 480.54379s480.543791-215.144408 480.543791-480.54379c0-265.40206-215.147085-480.543791-480.543791-480.543791z m-80.214672 592.016564c-120.639247 208.609548-122.197333 210.743216-122.269616 167.301522-0.096376-54.934588-17.781459-68.164936-60.513715-45.299618-49.470578 26.468727-45.802918 11.305495 26.348257-109.328398 58.061469-97.077877 67.535812-104.354301 135.933657-104.3543h73.508476l-53.007059 91.680794z m-163.192136-134.868162c-32.78674-12.156821-37.541312-29.046797-32.551153-115.815069 5.57645-96.976146 8.46239-101.875284 63.747681-108.17188 34.484037-3.924664 90.103969 10.986918 137.497098 36.866677l79.585548 43.447049 69.500821-42.943749c44.343885-27.408397 92.384878-40.753861 132.731817-36.864 61.059848 5.868256 63.455875 9.361903 69.230431 100.459085 3.298217 51.912115-2.345161 102.713224-12.523587 112.907712-22.035409 22.043441-451.952105 30.604884-507.218656 10.114175z m505.657893 256.353381c-31.049286-16.622264-39.723169-11.798086-53.593349 29.815132l-16.544628 49.644591-32.104073-64.275075c-17.655634-35.351425-54.83018-101.192617-82.613375-146.304836l-50.52001-82.043148h76.461343c72.523294 0 79.537359 5.447948 136.212079 105.87223 69.990735 124.001715 72.030703 133.68755 22.702013 107.291106z" fill="#2c2c2c" /></svg>